<svg xmlns="http://www.w3.org/2000/svg" xmlns:xlink="http://www.w3.org/1999/xlink" width="500" zoomAndPan="magnify" viewBox="0 0 375 374.999991" height="500" preserveAspectRatio="xMidYMid meet" version="1.0"><defs><g/><clipPath id="62fe202c9d"><path d="M 56.261719 149.703125 L 128 149.703125 L 128 222.453125 L 56.261719 222.453125 Z M 56.261719 149.703125 " clip-rule="nonzero"/></clipPath><clipPath id="e8ff09bcd1"><path d="M 125 178 L 141.761719 178 L 141.761719 204 L 125 204 Z M 125 178 " clip-rule="nonzero"/></clipPath></defs><rect x="-37.5" width="450" fill="#ffffff" y="-37.499999" height="449.999989" fill-opacity="1"/><rect x="-37.5" width="450" fill="#000000" y="-37.499999" height="449.999989" fill-opacity="1"/><g clip-path="url(#62fe202c9d)"><path fill="#ffffff" d="M 109.984375 149.75 C 101.285156 149.75 94.066406 156.082031 92.683594 164.386719 L 90.53125 164.792969 C 88.003906 160.523438 83.347656 157.65625 78.023438 157.65625 C 69.996094 157.65625 63.492188 164.160156 63.492188 172.183594 C 63.492188 179.007812 68.195312 184.730469 74.539062 186.289062 L 74.539062 187.914062 L 71.597656 187.914062 L 71.582031 187.78125 L 68.097656 186.488281 L 65.65625 186.488281 L 69.511719 194.511719 L 70.9375 194.128906 L 71.726562 192.835938 L 74.539062 192.835938 L 74.539062 210.980469 L 79.195312 210.980469 L 78.65625 215.019531 L 67.570312 217.128906 L 65.183594 215.890625 L 56.261719 217.589844 L 56.882812 222.59375 L 65.84375 220.890625 L 67.914062 218.804688 L 79.960938 216.207031 L 80.820312 210.980469 L 125.039062 210.980469 L 125.039062 180.8125 L 121.160156 180.8125 C 125.050781 177.597656 127.535156 172.734375 127.535156 167.289062 C 127.535156 157.597656 119.671875 149.75 109.984375 149.75 Z M 94.742188 175.972656 C 95.796875 177.820312 97.175781 179.464844 98.804688 180.816406 L 89.714844 180.816406 C 90.664062 179.527344 91.40625 178.078125 91.890625 176.511719 Z M 119.972656 204.882812 C 120.847656 204.882812 121.554688 205.59375 121.554688 206.46875 C 121.554688 207.34375 120.847656 208.050781 119.972656 208.050781 C 119.097656 208.050781 118.386719 207.34375 118.386719 206.46875 C 118.386719 205.59375 119.097656 204.882812 119.972656 204.882812 Z M 119.972656 204.882812 " fill-opacity="1" fill-rule="nonzero"/></g><path fill="#000000" d="M 109.730469 158.015625 C 104.832031 158.015625 100.863281 161.984375 100.863281 166.882812 C 100.863281 171.78125 104.832031 175.75 109.730469 175.75 C 114.628906 175.75 118.597656 171.78125 118.597656 166.882812 C 118.597656 161.984375 114.628906 158.015625 109.730469 158.015625 Z M 108.882812 160.632812 C 109.675781 160.632812 110.324219 161.269531 110.324219 162.0625 C 110.324219 162.859375 109.675781 163.503906 108.882812 163.503906 C 108.089844 163.503906 107.445312 162.859375 107.445312 162.0625 C 107.445312 161.269531 108.089844 160.632812 108.882812 160.632812 Z M 113.324219 163.328125 C 114.117188 163.328125 114.765625 163.972656 114.765625 164.765625 C 114.765625 165.558594 114.117188 166.207031 113.324219 166.207031 C 112.53125 166.207031 111.886719 165.558594 111.886719 164.765625 C 111.886719 163.972656 112.53125 163.328125 113.324219 163.328125 Z M 105.488281 164.457031 C 106.28125 164.457031 106.921875 165.105469 106.921875 165.898438 C 106.921875 166.691406 106.28125 167.335938 105.488281 167.335938 C 104.695312 167.335938 104.046875 166.691406 104.046875 165.898438 C 104.046875 165.105469 104.695312 164.457031 105.488281 164.457031 Z M 112.800781 168.382812 C 113.59375 168.382812 114.242188 169.023438 114.242188 169.816406 C 114.242188 170.609375 113.59375 171.253906 112.800781 171.253906 C 112.007812 171.253906 111.363281 170.609375 111.363281 169.816406 C 111.363281 169.023438 112.007812 168.382812 112.800781 168.382812 Z M 107.488281 169.253906 C 108.285156 169.253906 108.929688 169.890625 108.929688 170.683594 C 108.929688 171.480469 108.285156 172.125 107.488281 172.125 C 106.695312 172.125 106.050781 171.480469 106.050781 170.683594 C 106.050781 169.890625 106.695312 169.253906 107.488281 169.253906 Z M 107.488281 169.253906 " fill-opacity="1" fill-rule="nonzero"/><path fill="#000000" d="M 78.058594 164.347656 C 74.09375 164.347656 70.878906 167.5625 70.878906 171.527344 C 70.878906 175.492188 74.09375 178.707031 78.058594 178.707031 C 82.023438 178.707031 85.238281 175.492188 85.238281 171.527344 C 85.238281 167.5625 82.023438 164.347656 78.058594 164.347656 Z M 77.375 166.46875 C 78.015625 166.46875 78.539062 166.984375 78.539062 167.625 C 78.539062 168.269531 78.015625 168.792969 77.375 168.792969 C 76.730469 168.792969 76.207031 168.269531 76.207031 167.625 C 76.207031 166.984375 76.730469 166.46875 77.375 166.46875 Z M 80.96875 168.648438 C 81.613281 168.648438 82.132812 169.171875 82.132812 169.8125 C 82.132812 170.457031 81.613281 170.980469 80.96875 170.980469 C 80.328125 170.980469 79.804688 170.457031 79.804688 169.8125 C 79.804688 169.171875 80.328125 168.648438 80.96875 168.648438 Z M 74.625 169.566406 C 75.269531 169.566406 75.785156 170.085938 75.785156 170.730469 C 75.785156 171.371094 75.269531 171.894531 74.625 171.894531 C 73.984375 171.894531 73.460938 171.371094 73.460938 170.730469 C 73.460938 170.085938 73.984375 169.566406 74.625 169.566406 Z M 80.546875 172.742188 C 81.1875 172.742188 81.710938 173.257812 81.710938 173.902344 C 81.710938 174.542969 81.1875 175.066406 80.546875 175.066406 C 79.902344 175.066406 79.378906 174.542969 79.378906 173.902344 C 79.378906 173.257812 79.902344 172.742188 80.546875 172.742188 Z M 76.246094 173.445312 C 76.886719 173.445312 77.410156 173.964844 77.410156 174.605469 C 77.410156 175.25 76.886719 175.769531 76.246094 175.769531 C 75.601562 175.769531 75.082031 175.25 75.082031 174.605469 C 75.082031 173.964844 75.601562 173.445312 76.246094 173.445312 Z M 76.246094 173.445312 " fill-opacity="1" fill-rule="nonzero"/><g clip-path="url(#e8ff09bcd1)"><path fill="#ffffff" d="M 141.4375 178.957031 L 132.53125 184.351562 L 125.5625 184.351562 L 125.5625 197.800781 L 132.53125 197.800781 L 141.4375 203.195312 Z M 141.4375 178.957031 " fill-opacity="1" fill-rule="nonzero"/></g><g fill="#000000" fill-opacity="1"><g transform="translate(88.454742, 211.507854)"><g><path d="M 19.9375 -23.8125 L 19.9375 -19.1875 L 7.640625 -19.1875 L 7.640625 -14.09375 L 18.765625 -14.09375 L 18.765625 -9.46875 L 7.640625 -9.46875 L 7.640625 0 L 2.1875 0 L 2.1875 -23.8125 Z M 19.9375 -23.8125 "/></g></g></g><g fill="#ffffff" fill-opacity="1"><g transform="translate(179.733317, 188.809952)"><g><path d="M 24.734375 -29.546875 L 24.734375 -23.8125 L 9.46875 -23.8125 L 9.46875 -17.484375 L 23.28125 -17.484375 L 23.28125 -11.734375 L 9.46875 -11.734375 L 9.46875 0 L 2.71875 0 L 2.71875 -29.546875 Z M 24.734375 -29.546875 "/></g></g></g><g fill="#ffffff" fill-opacity="1"><g transform="translate(205.521528, 188.809952)"><g><path d="M 9.515625 -29.546875 L 9.515625 0 L 2.75 0 L 2.75 -29.546875 Z M 9.515625 -29.546875 "/></g></g></g><g fill="#ffffff" fill-opacity="1"><g transform="translate(217.788129, 188.809952)"><g><path d="M 23.03125 0 L 2.71875 0 L 2.71875 -29.546875 L 9.46875 -29.546875 L 9.46875 -5.984375 L 23.03125 -5.984375 Z M 23.03125 0 "/></g></g></g><g fill="#ffffff" fill-opacity="1"><g transform="translate(241.471171, 188.809952)"><g><path d="M 19.3125 -10.203125 L 27.328125 -29.546875 L 35.875 -29.546875 L 35.875 0 L 29.265625 0 L 29.265625 -19.59375 L 21.046875 0 L 17.484375 0 L 9.3125 -19.71875 L 9.3125 0 L 2.71875 0 L 2.71875 -29.546875 L 11.328125 -29.546875 Z M 19.3125 -10.203125 "/></g></g></g><g fill="#ffffff" fill-opacity="1"><g transform="translate(152.460594, 229.155977)"><g><path d="M 9.515625 -29.546875 L 9.515625 0 L 2.75 0 L 2.75 -29.546875 Z M 9.515625 -29.546875 "/></g></g></g><g fill="#ffffff" fill-opacity="1"><g transform="translate(164.727195, 229.155977)"><g><path d="M 23.15625 -11.015625 L 23.15625 -29.546875 L 29.46875 -29.546875 L 29.46875 0 L 23.6875 0 L 9.03125 -19.953125 L 9.03125 0 L 2.71875 0 L 2.71875 -29.546875 L 9.875 -29.546875 Z M 23.15625 -11.015625 "/></g></g></g><g fill="#ffffff" fill-opacity="1"><g transform="translate(196.911848, 229.155977)"><g><path d="M 1.046875 -10.15625 L 7.859375 -10.15625 C 8.015625 -9.082031 8.34375 -8.171875 8.84375 -7.421875 C 9.34375 -6.679688 10.101562 -6.113281 11.125 -5.71875 C 12.15625 -5.332031 13.535156 -5.140625 15.265625 -5.140625 C 16.960938 -5.140625 18.296875 -5.296875 19.265625 -5.609375 C 20.242188 -5.921875 20.929688 -6.316406 21.328125 -6.796875 C 21.734375 -7.285156 21.9375 -7.785156 21.9375 -8.296875 C 21.9375 -8.890625 21.757812 -9.414062 21.40625 -9.875 C 21.0625 -10.332031 20.347656 -10.75 19.265625 -11.125 C 18.191406 -11.507812 16.535156 -11.863281 14.296875 -12.1875 C 10.972656 -12.695312 8.394531 -13.363281 6.5625 -14.1875 C 4.726562 -15.007812 3.4375 -16.015625 2.6875 -17.203125 C 1.945312 -18.390625 1.578125 -19.753906 1.578125 -21.296875 C 1.578125 -22.910156 2.03125 -24.382812 2.9375 -25.71875 C 3.84375 -27.0625 5.238281 -28.125 7.125 -28.90625 C 9.007812 -29.6875 11.425781 -30.078125 14.375 -30.078125 C 17.425781 -30.078125 19.921875 -29.628906 21.859375 -28.734375 C 23.804688 -27.847656 25.269531 -26.613281 26.25 -25.03125 C 27.238281 -23.457031 27.8125 -21.617188 27.96875 -19.515625 L 21.21875 -19.515625 C 21.050781 -21.109375 20.484375 -22.320312 19.515625 -23.15625 C 18.546875 -23.988281 16.882812 -24.40625 14.53125 -24.40625 C 12.15625 -24.40625 10.515625 -24.085938 9.609375 -23.453125 C 8.710938 -22.828125 8.265625 -22.109375 8.265625 -21.296875 C 8.265625 -20.703125 8.453125 -20.164062 8.828125 -19.6875 C 9.203125 -19.21875 9.96875 -18.78125 11.125 -18.375 C 12.289062 -17.96875 14.035156 -17.59375 16.359375 -17.25 C 19.546875 -16.8125 22.019531 -16.1875 23.78125 -15.375 C 25.550781 -14.570312 26.800781 -13.578125 27.53125 -12.390625 C 28.257812 -11.203125 28.625 -9.8125 28.625 -8.21875 C 28.625 -6.601562 28.171875 -5.132812 27.265625 -3.8125 C 26.359375 -2.488281 24.929688 -1.429688 22.984375 -0.640625 C 21.046875 0.140625 18.523438 0.53125 15.421875 0.53125 C 12.160156 0.53125 9.492188 0.09375 7.421875 -0.78125 C 5.359375 -1.664062 3.820312 -2.910156 2.8125 -4.515625 C 1.800781 -6.117188 1.210938 -8 1.046875 -10.15625 Z M 1.046875 -10.15625 "/></g></g></g><g fill="#ffffff" fill-opacity="1"><g transform="translate(226.788926, 229.155977)"><g><path d="M 9.515625 -29.546875 L 9.515625 0 L 2.75 0 L 2.75 -29.546875 Z M 9.515625 -29.546875 "/></g></g></g><g fill="#ffffff" fill-opacity="1"><g transform="translate(239.055527, 229.155977)"><g><path d="M 23.359375 -11.9375 L 15.671875 -11.9375 L 15.671875 -16.96875 L 30.15625 -16.96875 L 30.15625 0 L 26.921875 0 L 24.859375 -7.6875 C 24.179688 -5.019531 22.882812 -2.984375 20.96875 -1.578125 C 19.050781 -0.171875 16.785156 0.53125 14.171875 0.53125 C 11.679688 0.53125 9.460938 -0.0390625 7.515625 -1.1875 C 5.578125 -2.34375 4.054688 -3.992188 2.953125 -6.140625 C 1.847656 -8.285156 1.296875 -10.851562 1.296875 -13.84375 L 1.296875 -15.5 C 1.296875 -18.53125 1.890625 -21.128906 3.078125 -23.296875 C 4.265625 -25.472656 5.957031 -27.144531 8.15625 -28.3125 C 10.351562 -29.488281 12.992188 -30.078125 16.078125 -30.078125 C 18.984375 -30.078125 21.441406 -29.59375 23.453125 -28.625 C 25.472656 -27.65625 27.039062 -26.359375 28.15625 -24.734375 C 29.28125 -23.117188 29.945312 -21.320312 30.15625 -19.34375 L 23 -19.34375 C 22.78125 -20.695312 22.101562 -21.851562 20.96875 -22.8125 C 19.832031 -23.769531 18.171875 -24.25 15.984375 -24.25 C 13.585938 -24.25 11.679688 -23.492188 10.265625 -21.984375 C 8.847656 -20.472656 8.140625 -18.273438 8.140625 -15.390625 L 8.140625 -14.171875 C 8.140625 -11.285156 8.832031 -9.09375 10.21875 -7.59375 C 11.613281 -6.09375 13.5 -5.34375 15.875 -5.34375 C 18.03125 -5.34375 19.769531 -5.96875 21.09375 -7.21875 C 22.414062 -8.476562 23.171875 -10.050781 23.359375 -11.9375 Z M 23.359375 -11.9375 "/></g></g></g><g fill="#ffffff" fill-opacity="1"><g transform="translate(271.159208, 229.155977)"><g><path d="M 22.59375 -17.6875 L 22.59375 -29.546875 L 29.3125 -29.546875 L 29.3125 0 L 22.59375 0 L 22.59375 -11.828125 L 9.46875 -11.828125 L 9.46875 0 L 2.71875 0 L 2.71875 -29.546875 L 9.46875 -29.546875 L 9.46875 -17.6875 Z M 22.59375 -17.6875 "/></g></g></g><g fill="#ffffff" fill-opacity="1"><g transform="translate(303.181928, 229.155977)"><g><path d="M 10.6875 -23.640625 L 0.8125 -23.640625 L 0.8125 -29.546875 L 27.28125 -29.546875 L 27.28125 -23.640625 L 17.453125 -23.640625 L 17.453125 0 L 10.6875 0 Z M 10.6875 -23.640625 "/></g></g></g></svg>